<svg aria-hidden="true" style="position: absolute; width: 0; height: 0; overflow: hidden;" version="1.1" xmlns="http://www.w3.org/2000/svg" xmlns:xlink="http://www.w3.org/1999/xlink">
<defs>
<symbol id="logo" viewBox="0 0 56 32">
<path d="M5.451 31.2c-0.014 0-0.031 0-0.048 0-1.001 0-1.939-0.271-2.744-0.744l0.026 0.014c-0.802-0.506-1.458-1.172-1.937-1.958l-0.015-0.026c-0.461-0.757-0.733-1.672-0.733-2.651 0-0.023 0-0.046 0-0.069l-0 0.003v-12.643c0-0.998 0.245-1.904 0.733-2.715 0.487-0.805 1.145-1.46 1.927-1.93l0.025-0.014c0.775-0.483 1.717-0.77 2.725-0.77 0.015 0 0.029 0 0.044 0h13.707v-7.698h4.84v31.2h-18.549zM5.654 26.378h12.733c0.009 0 0.019 0.001 0.029 0.001 0.194 0 0.37-0.077 0.499-0.202l-0 0c0.151-0.142 0.245-0.343 0.245-0.566 0-0.001 0-0.002 0-0.002v0-12.317c0-0.005 0-0.012 0-0.018 0-0.206-0.095-0.389-0.244-0.509l-0.001-0.001c-0.121-0.149-0.305-0.243-0.51-0.243-0.006 0-0.013 0-0.019 0l0.001-0h-12.733c-0.001 0-0.002 0-0.003 0-0.223 0-0.424 0.093-0.567 0.243l-0 0c-0.126 0.128-0.204 0.304-0.204 0.498 0 0.011 0 0.021 0.001 0.031l-0-0.002v12.317c0 0.216 0.067 0.405 0.203 0.568 0.149 0.125 0.343 0.202 0.555 0.202 0.005 0 0.010-0 0.016-0h-0.001z"></path>
<path d="M55.2 28.090l-9.778-8.89 9.778-8.89-3.422-3.11-9.778 8.89-9.778-8.89-3.422 3.11 9.778 8.89-9.778 8.89 3.422 3.11 9.778-8.89 9.778 8.89 3.422-3.11z"></path>
</symbol>
<symbol id="eye-close" viewBox="0 0 33 32">
<path d="M29.167 21.875c-0.142 0.082-0.313 0.131-0.495 0.131-0.371 0-0.694-0.201-0.867-0.501l-0.003-0.005-2.375-4.151c-1.294 0.886-2.794 1.599-4.402 2.056l-0.109 0.026 0.733 4.403c0.009 0.050 0.014 0.107 0.014 0.165 0 0.551-0.446 0.998-0.996 1h-0c-0.494-0.001-0.904-0.359-0.985-0.83l-0.001-0.006-0.72-4.323c-1.523 0.212-3.065 0.212-4.587 0l-0.72 4.323c-0.082 0.478-0.493 0.837-0.988 0.837-0.553 0-1.002-0.448-1.002-1.002 0-0.058 0.005-0.115 0.014-0.171l-0.001 0.006 0.737-4.403c-1.715-0.485-3.214-1.198-4.559-2.119l0.053 0.034-2.368 4.153c-0.177 0.304-0.501 0.505-0.871 0.505-0.555 0-1.005-0.45-1.005-1.005 0-0.184 0.049-0.356 0.136-0.505l-0.003 0.005 2.5-4.375c-0.88-0.763-1.67-1.581-2.384-2.464l-0.028-0.036c-0.157-0.176-0.253-0.409-0.253-0.665 0-0.552 0.448-1 1-1 0.332 0 0.627 0.162 0.809 0.412l0.002 0.003c2.076 2.568 5.705 5.625 11.223 5.625s9.147-3.061 11.223-5.625c0.183-0.26 0.482-0.428 0.82-0.428 0.552 0 1 0.448 1 1 0 0.262-0.101 0.501-0.266 0.679l0.001-0.001c-0.742 0.919-1.533 1.737-2.389 2.48l-0.024 0.020 2.501 4.375c0.086 0.145 0.137 0.32 0.137 0.506 0 0.37-0.2 0.692-0.498 0.866l-0.005 0.003z"></path>
</symbol>
<symbol id="eye-open" viewBox="0 0 32 32">
<path d="M30.913 15.595c-0.043-0.099-1.103-2.447-3.456-4.8-3.136-3.139-7.097-4.795-11.457-4.795s-8.32 1.657-11.457 4.793c-2.353 2.355-3.417 4.707-3.456 4.801-0.055 0.12-0.086 0.259-0.086 0.407s0.032 0.287 0.089 0.413l-0.003-0.006c0.043 0.099 1.103 2.445 3.456 4.8 3.136 3.133 7.097 4.792 11.457 4.792s8.32-1.657 11.457-4.792c2.353-2.355 3.413-4.701 3.456-4.8 0.055-0.12 0.086-0.259 0.086-0.407s-0.032-0.287-0.089-0.413l0.003 0.006zM16 24c-3.848 0-7.209-1.4-9.991-4.156-1.115-1.109-2.073-2.373-2.841-3.758l-0.043-0.086c0.81-1.471 1.769-2.735 2.883-3.843l0.001-0.001c2.781-2.756 6.143-4.156 9.991-4.156s7.209 1.4 9.991 4.156c1.118 1.109 2.078 2.373 2.847 3.759l0.043 0.085c-0.901 1.683-4.827 8-12.881 8zM16 10c-3.314 0-6 2.686-6 6s2.686 6 6 6v0c3.314 0 6-2.686 6-6s-2.686-6-6-6v0zM16 20c-0.022 0-0.047 0.001-0.073 0.001-2.209 0-4-1.791-4-4s1.791-4 4-4c0.026 0 0.051 0 0.077 0.001l-0.004-0c2.178 0.041 3.927 1.816 3.927 3.999s-1.749 3.958-3.923 3.999l-0.004 0z"></path>
</symbol>
<symbol id="logout" viewBox="0 0 32 32">
<path d="M24 5.333v-5.333h-21.333v32h21.333v-5.333h-2.667v2.667h-16v-26.667h16v2.667z"></path>
<path d="M22.115 8.781l-1.885 1.885 4 4h-10.896v2.667h10.896l-4 4 1.885 1.885 7.219-7.219z"></path>
</symbol>
</defs>
</svg>
